<svg xmlns="http://www.w3.org/2000/svg" viewBox="0 0 900 1200" width="900" height="1200" role="img" aria-label="Copper">
  <defs>
    <linearGradient id="wg-7" x1="15%" y1="0%" x2="85%" y2="100%">
      <stop offset="0%" stop-color="rgb(209,113,56)"/>
      <stop offset="100%" stop-color="rgb(155,59,2)"/>
    </linearGradient>
    <radialGradient id="vig-7" cx="50%" cy="38%" r="75%">
      <stop offset="55%" stop-color="#000000" stop-opacity="0"/>
      <stop offset="100%" stop-color="#000000" stop-opacity="0.28"/>
    </radialGradient>
  </defs>

  <rect width="900" height="1200" fill="url(#wg-7)"/>

  <!-- halo de luz de estudio, uniforme en toda la colección -->
  <ellipse cx="450" cy="384" rx="558" ry="360" fill="#ffffff" opacity="0.10"/>

  <!-- silueta abstracta de peluca, misma composición en toda la colección -->
  <g opacity="0.9" transform="translate(450 552)">
    <path d="M -150 40
             C -160 -140 -95 -230 0 -230
             C 95 -230 160 -140 150 40
             C 150 130 100 190 70 190
             C 60 130 60 70 40 70
             C 40 140 45 190 20 210
             L -20 210
             C -45 190 -40 140 -40 70
             C -60 70 -60 130 -70 190
             C -100 190 -150 130 -150 40 Z"
          fill="rgba(255,252,246,0.9)" opacity="0.16"/>
    <path d="M -150 20 C -145 -110 -90 -200 0 -200 C 90 -200 145 -110 150 20"
          fill="none" stroke="rgba(255,252,246,0.9)" stroke-width="2" opacity="0.55"/>
    <path d="M -128 60 C -120 -70 -70 -172 0 -172 C 70 -172 120 -70 128 60"
          fill="none" stroke="rgba(255,252,246,0.9)" stroke-width="1.2" opacity="0.35"/>
    <path d="M -104 96 C -98 -30 -55 -146 0 -146 C 55 -146 98 -30 104 96"
          fill="none" stroke="rgba(255,252,246,0.9)" stroke-width="1" opacity="0.25"/>
  </g>

  <rect width="900" height="1200" fill="url(#vig-7)"/>
  <rect x="0.5" y="0.5" width="899" height="1199" fill="none" stroke="rgba(255,255,255,0.12)" stroke-width="1"/>

  <g transform="translate(28 1156)">
    <rect width="150" height="26" rx="13" fill="rgba(255,252,246,0.14)"/>
    <text x="75" y="17" text-anchor="middle" font-family="Helvetica, Arial, sans-serif" font-size="10.5" letter-spacing="1.4" fill="rgba(255,252,246,0.45)">PLACEHOLDER</text>
  </g>
</svg>